<svg xmlns="http://www.w3.org/2000/svg" xmlns:xlink="http://www.w3.org/1999/xlink" version="1.1" width="1000" height="1000" viewBox="0 0 1000 1000" xml:space="preserve">
<desc>Created with Fabric.js 3.5.0</desc>
<defs>
</defs>
<rect x="0" y="0" width="100%" height="100%" fill="#ffffff"/>
<g transform="matrix(29.8683 0 0 22.8792 503.0565 501.3845)" id="171801">
<path style="stroke: none; stroke-width: 0; stroke-dasharray: none; stroke-linecap: butt; stroke-dashoffset: 0; stroke-linejoin: miter; stroke-miterlimit: 4; is-custom-font: none; font-file-url: none; fill: rgb(2,239,238); fill-rule: nonzero; opacity: 1;" vector-effect="non-scaling-stroke" transform=" translate(-15.2954, -12.175)" d="M 29.421 1.952 l -0.78 -0.779 C 27.887 0.417 26.878 0 25.805 0 c -1.074 0 -2.082 0.417 -2.838 1.174 L 11.031 13.109 L 7.623 9.703 C 6.869 8.946 5.86 8.529 4.787 8.529 c -1.075 0 -2.083 0.418 -2.839 1.176 l -0.774 0.774 c -1.564 1.565 -1.564 4.11 -0.002 5.674 l 7.018 7.023 c 0.757 0.758 1.765 1.174 2.838 1.174 c 1.074 0 2.082 -0.417 2.838 -1.175 L 29.419 7.624 C 30.98 6.059 30.98 3.515 29.421 1.952 z M 28.139 6.342 L 12.583 21.896 c -0.428 0.428 -0.991 0.642 -1.556 0.642 c -0.563 0 -1.128 -0.214 -1.556 -0.642 l -7.018 -7.023 c -0.854 -0.854 -0.854 -2.255 0 -3.11 l 0.777 -0.777 c 0.427 -0.428 0.992 -0.644 1.556 -0.644 s 1.127 0.216 1.555 0.644 l 4.689 4.688 L 24.249 2.454 c 0.428 -0.427 0.991 -0.642 1.556 -0.642 c 0.563 0 1.127 0.215 1.555 0.643 l 0.779 0.777 C 28.992 4.086 28.992 5.487 28.139 6.342 z" stroke-linecap="round"/>
</g>
</svg>