<svg xmlns="http://www.w3.org/2000/svg" viewBox="0 0 53.61 38.56"><defs><style
    >.cls-1{fill:#fd0;}</style></defs><g id="Calque_2" data-name="Calque 2"><g
      id="Calque_3"
      data-name="Calque 3"
    ><path
        class="cls-1"
        d="M39.57,38.56s-1.65-2-3-3.72c6-1.7,8.31-5.46,8.31-5.46a26.28,26.28,0,0,1-5.28,2.71,30.63,30.63,0,0,1-6.66,2A31.92,31.92,0,0,1,21,34a37.68,37.68,0,0,1-6.74-2,26.79,26.79,0,0,1-3.36-1.56c-.13-.09-.27-.14-.41-.23a.56.56,0,0,1-.18-.14C9.5,29.65,9,29.33,9,29.33s2.21,3.67,8,5.42C15.7,36.49,14,38.56,14,38.56c-10.14-.32-14-7-14-7A61.47,61.47,0,0,1,6.61,4.82,22.68,22.68,0,0,1,19.51,0L20,.55c-8.26,2.39-12.07,6-12.07,6s1-.55,2.7-1.33A34.87,34.87,0,0,1,21,2.34a5.33,5.33,0,0,1,.78-.09,38.62,38.62,0,0,1,9.28-.09,37.38,37.38,0,0,1,13.81,4.4S41.27,3.12,33.46.73L34.11,0A22.66,22.66,0,0,1,47,4.82a61.47,61.47,0,0,1,6.61,26.76S49.71,38.24,39.57,38.56ZM18.22,17.12a4.9,4.9,0,0,0-4.68,5.1,4.91,4.91,0,0,0,4.68,5.09,4.89,4.89,0,0,0,4.69-5.09,4.87,4.87,0,0,0-4.69-5.1m16.76,0a4.89,4.89,0,0,0-4.68,5.1A4.91,4.91,0,0,0,35,27.31a4.89,4.89,0,0,0,4.68-5.09A4.9,4.9,0,0,0,35,17.12"
      /></g></g></svg>
