<?xml version="1.0" standalone="no"?>
<!DOCTYPE svg PUBLIC "-//W3C//DTD SVG 20010904//EN"
 "http://www.w3.org/TR/2001/REC-SVG-20010904/DTD/svg10.dtd">
<svg version="1.0" xmlns="http://www.w3.org/2000/svg"
 width="72.000000pt" height="72.000000pt" viewBox="0 0 72.000000 72.000000"
 preserveAspectRatio="xMidYMid meet">

<g transform="translate(0.000000,72.000000) scale(0.100000,-0.100000)"
fill="#000000" stroke="none">
<path d="M50 707 c-48 -25 -50 -40 -48 -359 3 -295 3 -298 26 -320 22 -23 23
-23 332 -23 309 0 309 0 332 23 23 23 23 23 23 332 0 309 0 310 -23 332 -22
23 -25 23 -320 26 -226 2 -303 -1 -322 -11z m160 -107 c58 -58 -20 -142 -88
-94 -27 18 -30 69 -5 96 21 24 68 23 93 -2z m344 -155 c57 -27 66 -56 66 -209
l0 -136 -55 0 -55 0 0 110 c0 97 -2 112 -20 130 -26 26 -46 25 -75 -5 -23 -23
-25 -31 -25 -130 l0 -105 -55 0 -55 0 0 175 0 175 55 0 c50 0 55 -2 55 -22 l0
-21 23 20 c39 36 89 43 141 18z m-334 -170 l0 -175 -55 0 -55 0 0 175 0 175
55 0 55 0 0 -175z"/>
</g>
</svg>
