<?xml version="1.0" encoding="UTF-8"?>
<svg xmlns="http://www.w3.org/2000/svg" xmlns:xlink="http://www.w3.org/1999/xlink" width="30px" height="30px" viewBox="0 0 30 30" version="1.1">
<g id="surface1">
<path style=" stroke:none;fill-rule:nonzero;fill:rgb(0%,0%,0%);fill-opacity:1;" d="M 2.082031 0.542969 C 0.0820312 1.582031 0 2.207031 0.0820312 15.5 C 0.207031 27.792969 0.207031 27.917969 1.167969 28.832031 C 2.082031 29.792969 2.125 29.792969 15 29.792969 C 27.875 29.792969 27.875 29.792969 28.832031 28.832031 C 29.792969 27.875 29.792969 27.875 29.792969 15 C 29.792969 2.125 29.792969 2.082031 28.832031 1.167969 C 27.917969 0.207031 27.792969 0.207031 15.5 0.0820312 C 6.082031 0 2.875 0.125 2.082031 0.542969 Z M 8.75 5 C 11.167969 7.417969 7.917969 10.917969 5.082031 8.917969 C 3.957031 8.167969 3.832031 6.042969 4.875 4.917969 C 5.75 3.917969 7.707031 3.957031 8.75 5 Z M 23.082031 11.457031 C 25.457031 12.582031 25.832031 13.792969 25.832031 20.167969 L 25.832031 25.832031 L 21.25 25.832031 L 21.25 21.25 C 21.25 17.207031 21.167969 16.582031 20.417969 15.832031 C 19.332031 14.75 18.5 14.792969 17.292969 16.042969 C 16.332031 17 16.25 17.332031 16.25 21.457031 L 16.25 25.832031 L 11.667969 25.832031 L 11.667969 11.25 L 13.957031 11.25 C 16.042969 11.25 16.25 11.332031 16.25 12.167969 L 16.25 13.042969 L 17.207031 12.207031 C 18.832031 10.707031 20.917969 10.417969 23.082031 11.457031 Z M 9.167969 18.542969 L 9.167969 25.832031 L 4.582031 25.832031 L 4.582031 11.25 L 9.167969 11.25 Z M 9.167969 18.542969 "/>
</g>
</svg>
