<svg width="30" height="30" xmlns="http://www.w3.org/2000/svg" xmlns:xlink="http://www.w3.org/1999/xlink" xml:space="preserve" overflow="hidden"><defs><clipPath id="clip0"><rect x="349" y="360" width="30" height="30"/></clipPath></defs><g clip-path="url(#clip0)" transform="translate(-349 -360)"><path d="M2.08333 29.4583C0.0833333 28.4167 0 27.7917 0.0833333 14.5 0.208333 2.20833 0.208333 2.08333 1.16667 1.16667 2.08333 0.208333 2.125 0.208333 15 0.208333 27.875 0.208333 27.875 0.208333 28.8333 1.16667 29.7917 2.125 29.7917 2.125 29.7917 15 29.7917 27.875 29.7917 27.9167 28.8333 28.8333 27.9167 29.7917 27.7917 29.7917 15.5 29.9167 6.08333 30 2.875 29.875 2.08333 29.4583ZM8.75 25C11.1667 22.5833 7.91667 19.0833 5.08333 21.0833 3.95833 21.8333 3.83333 23.9583 4.875 25.0833 5.75 26.0833 7.70833 26.0417 8.75 25ZM23.0833 18.5417C25.4583 17.4167 25.8333 16.2083 25.8333 9.83333L25.8333 4.16667 23.5417 4.16667 21.25 4.16667 21.25 8.75C21.25 12.7917 21.1667 13.4167 20.4167 14.1667 19.3333 15.25 18.5 15.2083 17.2917 13.9583 16.3333 13 16.25 12.6667 16.25 8.54167L16.25 4.16667 13.9583 4.16667 11.6667 4.16667 11.6667 11.4583 11.6667 18.75 13.9583 18.75C16.0417 18.75 16.25 18.6667 16.25 17.8333L16.25 16.9583 17.2083 17.7917C18.8333 19.2917 20.9167 19.5833 23.0833 18.5417ZM9.16667 11.4583 9.16667 4.16667 6.875 4.16667 4.58333 4.16667 4.58333 11.4583 4.58333 18.75 6.875 18.75 9.16667 18.75 9.16667 11.4583Z" transform="matrix(1 0 0 -1 349 390)"/></g></svg>