<svg xmlns="http://www.w3.org/2000/svg" viewBox="0 0 296.669 346.468">
  <g id="Calque_2" data-name="Calque 2">
    <g id="Calque_3" data-name="Calque 3">
      <g>
        <rect width="17.438" height="172.029" fill="#fff"/>
        <rect x="32.024" y="23.618" width="17.438" height="148.411" fill="#fff"/>
        <rect x="0.048" y="180.223" width="12.565" height="106.944" fill="#fff"/>
        <rect x="23.044" y="225.503" width="12.565" height="61.664" fill="#fff"/>
        <rect x="120.912" y="23.618" width="17.438" height="148.411" fill="#fff"/>
        <rect x="177.876" y="23.618" width="17.438" height="148.411" fill="#fff"/>
        <rect x="217.312" y="23.618" width="17.438" height="148.411" fill="#fff"/>
        <rect x="197.281" y="23.618" width="17.438" height="148.411" transform="translate(-18.607 58.361) rotate(-15.437)" fill="#fff"/>
        <g>
          <rect x="85.945" y="179.465" width="12.565" height="106.944" fill="#fff"/>
          <rect x="114.362" y="179.465" width="12.565" height="106.944" fill="#fff"/>
          <rect x="99.928" y="179.465" width="12.565" height="106.944" transform="translate(-58.17 36.674) rotate(-15.437)" fill="#fff"/>
        </g>
        <rect x="16.267" y="106.202" width="17.438" height="49.293" transform="translate(155.834 105.862) rotate(90)" fill="#fff"/>
        <rect x="11.722" y="168.353" width="12.565" height="35.52" transform="translate(204.117 168.108) rotate(90)" fill="#fff"/>
        <g>
          <rect x="118.905" y="282.354" width="12.565" height="35.52" transform="translate(425.302 174.926) rotate(90)" fill="#fff"/>
          <rect x="118.905" y="322.225" width="12.565" height="35.52" transform="translate(465.173 214.797) rotate(90)" fill="#fff"/>
          <rect x="161.379" y="322.225" width="12.565" height="35.52" transform="translate(507.647 172.323) rotate(90)" fill="#fff"/>
          <rect x="202.138" y="322.225" width="12.565" height="35.52" transform="translate(548.405 131.564) rotate(90)" fill="#fff"/>
          <rect x="246.054" y="321.199" width="12.565" height="37.573" transform="translate(592.321 87.648) rotate(90)" fill="#fff"/>
          <rect x="246.034" y="299.289" width="12.565" height="37.533" transform="translate(570.372 65.739) rotate(90)" fill="#fff"/>
          <rect x="41.014" y="273.248" width="12.565" height="92.638" transform="translate(366.864 272.27) rotate(90)" fill="#fff"/>
          <rect x="284.015" y="313.196" width="12.565" height="12.741" transform="translate(609.865 29.269) rotate(90)" fill="#fff"/>
          <rect x="242.582" y="284.781" width="12.565" height="30.63" transform="translate(548.961 51.231) rotate(90)" fill="#fff"/>
          <rect x="107.515" y="303.783" width="12.565" height="35.52" fill="#fff"/>
          <rect x="149.563" y="294.471" width="12.565" height="51.902" fill="#fff"/>
          <rect x="189.122" y="294.471" width="12.565" height="51.902" fill="#fff"/>
          <rect x="215.51" y="294.471" width="12.565" height="51.902" fill="#fff"/>
          <rect x="258.635" y="321.59" width="12.565" height="24.877" fill="#fff"/>
          <rect x="251.887" y="294.601" width="12.565" height="24.782" fill="#fff"/>
          <rect x="233.479" y="294.471" width="12.565" height="51.902" fill="#fff"/>
        </g>
        <g>
          <rect x="230.196" y="180.223" width="12.565" height="106.944" fill="#fff"/>
          <rect x="230.176" y="168.353" width="12.565" height="35.52" transform="translate(422.572 -50.346) rotate(90)" fill="#fff"/>
        </g>
        <g>
          <rect x="187.95" y="168.353" width="12.565" height="35.52" transform="translate(380.345 -8.12) rotate(90)" fill="#fff"/>
          <rect x="187.95" y="205.072" width="12.565" height="35.52" transform="translate(417.065 28.599) rotate(90)" fill="#fff"/>
          <rect x="187.95" y="261.142" width="12.565" height="35.52" transform="translate(473.134 84.669) rotate(90)" fill="#fff"/>
          <rect x="199.235" y="225.277" width="12.565" height="59.473" transform="translate(411.036 510.027) rotate(180)" fill="#fff"/>
          <rect x="176.665" y="185.894" width="12.565" height="41.483" transform="translate(365.895 413.272) rotate(180)" fill="#fff"/>
        </g>
        <rect x="20.67" y="223.292" width="12.565" height="17.624" transform="translate(259.057 205.151) rotate(90)" fill="#fff"/>
        <rect x="11.722" y="262.89" width="12.565" height="35.52" transform="translate(298.655 262.645) rotate(90)" fill="#fff"/>
        <g>
          <rect x="133.495" y="180.223" width="12.565" height="106.944" fill="#fff"/>
          <rect x="156.491" y="225.503" width="12.565" height="61.664" fill="#fff"/>
          <rect x="145.169" y="168.353" width="12.565" height="35.52" transform="translate(337.564 34.661) rotate(90)" fill="#fff"/>
          <rect x="154.117" y="223.292" width="12.565" height="17.624" transform="translate(392.503 71.704) rotate(90)" fill="#fff"/>
          <rect x="145.169" y="262.89" width="12.565" height="35.52" transform="translate(432.101 129.198) rotate(90)" fill="#fff"/>
        </g>
        <g>
          <rect x="244.534" y="23.618" width="17.438" height="148.411" fill="#fff"/>
          <rect x="277.421" y="23.618" width="17.438" height="148.411" fill="#fff"/>
          <rect x="261.932" y="67.184" width="17.438" height="49.293" transform="translate(362.481 -178.821) rotate(90)" fill="#fff"/>
          <rect x="261.932" y="7.843" width="17.438" height="49.293" transform="translate(303.141 -238.161) rotate(90)" fill="#fff"/>
        </g>
        <g>
          <rect x="43.923" y="180.134" width="12.565" height="106.944" fill="#fff"/>
          <rect x="67.621" y="180.134" width="12.565" height="106.944" fill="#fff"/>
          <rect x="56.46" y="211.527" width="12.565" height="35.52" transform="translate(292.03 166.544) rotate(90)" fill="#fff"/>
          <rect x="56.46" y="168.767" width="12.565" height="35.52" transform="translate(249.269 123.784) rotate(90)" fill="#fff"/>
        </g>
        <g>
          <rect x="259.004" y="180.134" width="12.565" height="106.944" fill="#fff"/>
          <rect x="282.702" y="180.134" width="12.565" height="106.944" fill="#fff"/>
          <rect x="271.541" y="211.527" width="12.565" height="35.52" transform="translate(507.111 -48.537) rotate(90)" fill="#fff"/>
          <rect x="271.541" y="168.767" width="12.565" height="35.52" transform="translate(464.35 -91.297) rotate(90)" fill="#fff"/>
        </g>
        <g>
          <rect x="76.621" y="59.174" width="17.438" height="112.855" fill="#fff"/>
          <polygon points="56.14 23.1 72.264 23.141 92.829 66.607 76.706 73.248 56.14 23.1" fill="#fff"/>
          <polygon points="113.849 23.696 97.725 23.737 77.204 66.607 93.327 73.248 113.849 23.696" fill="#fff"/>
        </g>
        <rect x="137.08" y="8.076" width="17.438" height="49.293" transform="translate(178.522 -113.076) rotate(90)" fill="#fff"/>
        <rect x="137.08" y="138.279" width="17.438" height="49.293" transform="translate(308.724 17.126) rotate(90)" fill="#fff"/>
        <rect x="132.83" y="69.548" width="17.438" height="40.793" transform="translate(231.494 -51.604) rotate(90)" fill="#fff"/>
      </g>
    </g>
  </g>
</svg>
