<svg xmlns="http://www.w3.org/2000/svg" viewBox="0 0 83.42 83.35"><defs><style>.cls-1{fill:#fff;}</style></defs><g id="Calque_2" data-name="Calque 2"><g id="Calque_3" data-name="Calque 3"><path class="cls-1" d="M38,76.78Q57.43,57.45,76.76,38c6-6.06,8-13.42,5.82-21.66A21.87,21.87,0,0,0,62.54.05a21.55,21.55,0,0,0-17,6.36c-3.19,3.12-6.31,6.3-9.46,9.46Q21.25,30.67,6.46,45.49C2.17,49.8.1,55.07,0,61.66c.08.74.14,2,.35,3.25A22.12,22.12,0,0,0,19.53,83.18,21.58,21.58,0,0,0,38,76.78ZM32,27.9c.12-.13.26-.28.41-.42q8.4-8.41,16.82-16.83A16.51,16.51,0,0,1,71.58,9.31a16,16,0,0,1,6.14,13.9,16.46,16.46,0,0,1-5.19,11.14q-8.39,8.32-16.72,16.72a1.89,1.89,0,0,0-.26.39C47.65,43.55,39.84,35.75,32,27.9ZM18.69,77.31A15.8,15.8,0,0,1,6.07,64.68a15.82,15.82,0,0,1,4.5-15.35c5.65-5.73,11.37-11.39,17.05-17.08.1-.1.22-.19.29-.26L51.42,55.52c-.18.16-.44.38-.68.61C45.1,61.77,39.51,67.47,33.8,73A15.64,15.64,0,0,1,18.69,77.31Z"/><path class="cls-1" d="M67.43,29.9a1.69,1.69,0,0,0,.93,1.39A1.42,1.42,0,0,0,70,30.92a12.21,12.21,0,0,0,3.28-11.28A11.86,11.86,0,0,0,70,13.55a1.38,1.38,0,0,0-1.54-.44,1.41,1.41,0,0,0-.44,2.44,9.63,9.63,0,0,1,0,13.32A6,6,0,0,0,67.43,29.9Z"/><path class="cls-1" d="M9.67,61.88a28.07,28.07,0,0,0,.6,3.09,11.37,11.37,0,0,0,3,5,1.41,1.41,0,0,0,1.74.27,1.34,1.34,0,0,0,.66-1.53,2.49,2.49,0,0,0-.56-.88,9.47,9.47,0,0,1-2.36-8.74,9.25,9.25,0,0,1,2.55-4.62A1.39,1.39,0,0,0,15.63,53a1.31,1.31,0,0,0-1.1-.92,1.46,1.46,0,0,0-1.34.53A12.87,12.87,0,0,0,9.67,61.88Z"/></g></g></svg>