<svg xmlns="http://www.w3.org/2000/svg" viewBox="0 0 53 42.95"><defs><style>.cls-1{fill:#fd0;}</style></defs><g id="Calque_2" data-name="Calque 2"><g id="Calque_3" data-name="Calque 3"><path class="cls-1" d="M53,5.14A17,17,0,0,1,51.77,6.8a21.07,21.07,0,0,1-4,3.76l-.19.34a28.72,28.72,0,0,1-.24,4.81,32.11,32.11,0,0,1-8.78,18.2,29.14,29.14,0,0,1-15,8.31,33.1,33.1,0,0,1-6.05.71l-1,0A30.45,30.45,0,0,1,.26,38.27L0,38.11a24.47,24.47,0,0,0,2.55.13,22.15,22.15,0,0,0,8.32-1.61,21.76,21.76,0,0,0,5.17-3A10.74,10.74,0,0,1,6,26.08a10.52,10.52,0,0,0,2,.19A11.2,11.2,0,0,0,10.66,26l.17-.08A10.79,10.79,0,0,1,2.26,15.14a10.73,10.73,0,0,0,4.82,1.3A10.78,10.78,0,0,1,2.67,9.87,10.69,10.69,0,0,1,3.91,2,30.72,30.72,0,0,0,26.18,13.36c-.06-.45-.12-.82-.18-1.2a10.52,10.52,0,0,1,1.66-7.08A10.46,10.46,0,0,1,35,.17,12.32,12.32,0,0,1,37,0a10.46,10.46,0,0,1,7.49,3.19.6.6,0,0,0,.4.19l.17,0A21.41,21.41,0,0,0,51.41.94l.14-.08a10.71,10.71,0,0,1-4.61,5.9A20.92,20.92,0,0,0,53,5.14Z"/></g></g></svg>